<svg width="16" height="17" viewBox="0 0 16 17" fill="none" xmlns="http://www.w3.org/2000/svg">
<path d="M4.06903 1C4.24376 1 4.38541 1.22258 4.38541 1.49715L4.38532 4.55394L8.29292 1.004L8.29299 1L8.29505 1.00185L8.29735 1L8.29719 1.004L15.2783 7.39476V16.1479L10.7899 16.1478L10.79 10.2399C10.79 10.0691 10.6219 9.92858 10.4064 9.91168L10.3627 9.90998H6.23197C6.01072 9.90998 5.82874 10.0398 5.80686 10.2062L5.80465 10.2399L5.80452 16.1478L1.25821 16.1479V7.39517L2.27619 6.47009L2.2762 1.49715C2.2762 1.22258 2.41785 1 2.59258 1L4.06903 1Z" stroke="#171518" stroke-width="0.95" stroke-linejoin="round"/>
</svg>
